<?xml version="1.0" encoding="UTF-8"?>
<svg width="504px" height="163px" viewBox="0 0 504 163" version="1.1" xmlns="http://www.w3.org/2000/svg" xmlns:xlink="http://www.w3.org/1999/xlink">
    <title>Artboard</title>
    <defs>
        <linearGradient x1="50%" y1="0%" x2="50%" y2="100%" id="linearGradient-1">
            <stop stop-color="#60C0FF" offset="0%"></stop>
            <stop stop-color="#328BFF" offset="100%"></stop>
        </linearGradient>
        <path d="M49.5051998,7.52665671 L60.5481136,7.52665671 C72.6823541,7.52665671 78.9177528,9.1511049 84.6214565,12.201479 C90.3251602,15.2518531 94.8014603,19.7281532 97.8518344,25.4318569 C100.902209,31.1355606 102.526657,37.3709593 102.526657,49.5051998 L102.526657,60.5481136 C102.526657,72.6823541 100.902209,78.9177528 97.8518344,84.6214565 C94.8014603,90.3251602 90.3251602,94.8014603 84.6214565,97.8518344 C78.9177528,100.902209 72.6823541,102.526657 60.5481136,102.526657 L49.5051998,102.526657 C37.3709593,102.526657 31.1355606,100.902209 25.4318569,97.8518344 C19.7281532,94.8014603 15.2518531,90.3251602 12.201479,84.6214565 C9.1511049,78.9177528 7.52665671,72.6823541 7.52665671,60.5481136 L7.52665671,49.5051998 C7.52665671,37.3709593 9.1511049,31.1355606 12.201479,25.4318569 C15.2518531,19.7281532 19.7281532,15.2518531 25.4318569,12.201479 C31.1355606,9.1511049 37.3709593,7.52665671 49.5051998,7.52665671 Z" id="path-2"></path>
        <filter x="-11.1%" y="-11.1%" width="122.2%" height="122.2%" filterUnits="objectBoundingBox" id="filter-4">
            <feGaussianBlur stdDeviation="4" in="SourceGraphic"></feGaussianBlur>
        </filter>
        <linearGradient x1="50%" y1="0%" x2="50%" y2="100%" id="linearGradient-5">
            <stop stop-color="#FF9BCC" offset="0%"></stop>
            <stop stop-color="#FF007D" offset="100%"></stop>
        </linearGradient>
    </defs>
    <g id="Artboard" stroke="none" stroke-width="1" fill="none" fill-rule="evenodd">
        <g id="Group" transform="translate(148, 9)" fill="#000000" fill-rule="nonzero">
            <g id="flick">
                <path d="M15.9190768,140.696644 L15.9190768,35.1651636 C15.9190768,24.8500489 18.5402903,16.8517862 23.7827172,11.1703754 C29.0251441,5.48896463 37.0296347,2.64825923 47.796189,2.64825923 C51.5282216,2.64825923 55.472029,3.28158207 59.6276113,4.54822777 C63.7831936,5.81487346 67.5621763,7.36993848 70.9645593,9.21342282 L61.5665501,27.5233012 C59.5466974,26.3976161 57.6861752,25.5918414 55.9849837,25.1059773 C54.2837922,24.6201133 52.7689027,24.3771812 51.440315,24.3771812 C47.9620127,24.3771812 45.3917451,25.5478537 43.7295122,27.8891988 C42.0672793,30.2305439 41.2361628,34.037479 41.2361628,39.3100042 L41.2361628,140.696644 L15.9190768,140.696644 Z M0,65.0697987 L0,44.7234899 L64.8270839,44.7234899 L64.8270839,65.0697987 L0,65.0697987 Z" id="Shape"></path>
                <polygon id="Path" points="77.0033549 140.696644 77.0033549 6.33422819 102.320441 6.33422819 102.320441 140.696644"></polygon>
                <path d="M121.017698,140.696644 L121.017698,44.7234899 L146.334784,44.7234899 L146.334784,140.696644 L121.017698,140.696644 Z M133.676241,29.1758389 C129.840318,29.1758389 126.451921,27.7362416 123.511047,24.857047 C120.570173,21.9778523 119.099737,18.5548098 119.099737,14.5879195 C119.099737,10.6210291 120.570173,7.19798658 123.511047,4.31879195 C126.451921,1.43959732 129.840318,0 133.676241,0 C137.640027,0 141.060391,1.43959732 143.937332,4.31879195 C146.814274,7.19798658 148.252745,10.6210291 148.252745,14.5879195 C148.252745,18.5548098 146.814274,21.9778523 143.937332,24.857047 C141.060391,27.7362416 137.640027,29.1758389 133.676241,29.1758389 Z" id="Shape"></path>
                <path d="M211.176821,143 C201.203423,143 192.342843,140.8566 184.595079,136.569799 C176.847316,132.282998 170.786759,126.345659 166.413408,118.757781 C162.040057,111.169904 159.853382,102.487332 159.853382,92.7100671 C159.853382,82.8568233 162.027071,74.1552573 166.374449,66.6053691 C170.721828,59.055481 176.731439,53.1371365 184.403283,48.8503356 C192.075127,44.5635347 200.871776,42.4201342 210.793229,42.4201342 C220.484926,42.4201342 229.269087,44.7999685 237.145714,49.5596372 C245.02234,54.3193058 250.801697,61.1269016 254.483782,69.9824245 L230.704062,78.5810193 C228.913965,74.8440646 226.132921,71.8494023 222.360931,69.5970323 C218.588941,67.3446623 214.349448,66.2184773 209.642452,66.2184773 C204.963426,66.2184773 200.833816,67.338664 197.253622,69.5790373 C193.673428,71.8194107 190.859919,74.935539 188.813095,78.9274224 C186.766271,82.9193058 185.742859,87.5135207 185.742859,92.7100671 C185.742859,97.9066135 186.778758,102.481834 188.850555,106.435728 C190.922353,110.389622 193.799794,113.50575 197.482879,115.784113 C201.165963,118.062476 205.347018,119.201657 210.026044,119.201657 C214.707068,119.201657 218.927082,117.998493 222.686086,115.592167 C226.44509,113.18584 229.232626,109.961242 231.048696,105.918372 L254.906333,114.4 C251.224247,123.511451 245.451384,130.555981 237.587744,135.533589 C229.724104,140.511196 220.920463,143 211.176821,143 Z" id="Path"></path>
                <path d="M289.141076,116.394442 L273.911267,98.852349 L323.01107,44.7234899 L353.162017,44.7234899 L289.141076,116.394442 Z M264.974767,140.696644 L264.974767,6.33422819 L290.291853,6.33422819 L290.291853,140.696644 L264.974767,140.696644 Z M326.2746,140.696644 L294.43345,94.3206166 L311.002835,76.8535025 L356,140.696644 L326.2746,140.696644 Z" id="Shape"></path>
            </g>
        </g>
        <g id="Rectangle" transform="translate(0.5721, 0.1021)">
            <mask id="mask-3" fill="white">
                <use xlink:href="#path-2" transform="translate(55.0267, 55.0267) rotate(-10) translate(-55.0267, -55.0267)"></use>
            </mask>
            <use id="Mask" fill="url(#linearGradient-1)" transform="translate(55.0267, 55.0267) rotate(-10) translate(-55.0267, -55.0267)" xlink:href="#path-2"></use>
            <path d="M80.292955,39.8979436 L92.5628592,39.8979436 C106.298047,39.8979436 113.446303,41.7544558 119.964821,45.2405976 C126.48334,48.7267395 131.599111,53.842511 135.085253,60.3610295 C138.571395,66.879548 140.427907,74.027804 140.427907,87.7629914 L140.427907,100.032896 C140.427907,113.768083 138.571395,120.916339 135.085253,127.434858 C131.599111,133.953376 126.48334,139.069148 119.964821,142.555289 C113.446303,146.041431 106.298047,147.897944 92.5628592,147.897944 L80.292955,147.897944 C66.5577675,147.897944 59.4095115,146.041431 52.890993,142.555289 C46.3724745,139.069148 41.256703,133.953376 37.7705612,127.434858 C34.2844193,120.916339 32.4279071,113.768083 32.4279071,100.032896 L32.4279071,87.7629914 C32.4279071,74.027804 34.2844193,66.879548 37.7705612,60.3610295 C41.256703,53.842511 46.3724745,48.7267395 52.890993,45.2405976 C59.4095115,41.7544558 66.5577675,39.8979436 80.292955,39.8979436 Z" fill="#000000" opacity="0.141415551" filter="url(#filter-4)" mask="url(#mask-3)" transform="translate(86.4279, 93.8979) rotate(25) translate(-86.4279, -93.8979)"></path>
        </g>
        <path d="M78.5551998,49.1755996 L89.4754146,49.1755996 C101.790703,49.1755996 108.231863,50.8464606 114.09853,53.9839882 C119.965197,57.1215159 124.569391,61.7257102 127.706919,67.5923769 C130.844446,73.4590436 132.515307,79.900204 132.515307,92.2154922 L132.515307,103.135707 C132.515307,115.450995 130.844446,121.892156 127.706919,127.758822 C124.569391,133.625489 119.965197,138.229683 114.09853,141.367211 C108.231863,144.504739 101.790703,146.1756 89.4754146,146.1756 L78.5551998,146.1756 C66.2399116,146.1756 59.7987512,144.504739 53.9320845,141.367211 C48.0654178,138.229683 43.4612235,133.625489 40.3236958,127.758822 C37.1861682,121.892156 35.5153072,115.450995 35.5153072,103.135707 L35.5153072,92.2154922 C35.5153072,79.900204 37.1861682,73.4590436 40.3236958,67.5923769 C43.4612235,61.7257102 48.0654178,57.1215159 53.9320845,53.9839882 C59.7987512,50.8464606 66.2399116,49.1755996 78.5551998,49.1755996 Z" id="Rectangle" fill="url(#linearGradient-5)" transform="translate(84.0153, 97.6756) rotate(25) translate(-84.0153, -97.6756)"></path>
    </g>
</svg>