<?xml version="1.0" encoding="UTF-8"?>
<svg width="200px" height="82px" viewBox="0 0 200 82" version="1.1" xmlns="http://www.w3.org/2000/svg" xmlns:xlink="http://www.w3.org/1999/xlink">
    <title>Artboard</title>
    <g id="Artboard" stroke="none" stroke-width="1" fill="none" fill-rule="evenodd">
        <g id="O" transform="translate(0, 2)">
            <g id="flick" transform="translate(0, 1.1268)" fill="#000000" fill-rule="nonzero">
                <path d="M34.5767504,22.715884 L34.5767504,35.4443773 L0,35.4443773 L0,22.715884 L34.5767504,22.715884 Z M7.21215269,76.8659018 L7.21215269,19.9838631 C7.21215269,15.799305 7.98843463,12.3249967 9.54099852,9.56093819 C11.0935624,6.79687968 13.2583131,4.73033159 16.0352505,3.36129394 C18.8121879,1.99225629 22.0229041,1.30773746 25.6673991,1.30773746 C28.0588948,1.30773746 30.3169299,1.49668332 32.4415042,1.87457505 C34.5660786,2.25246678 36.1265522,2.57359907 37.122925,2.83797192 L34.40349,15.4309993 C33.7541401,15.2438193 32.9907899,15.0775772 32.1134394,14.932273 C31.2360889,14.7869689 30.3795799,14.7143168 29.5439123,14.7143168 C27.5576952,14.7143168 26.1836648,15.1647345 25.4218213,16.0655698 C24.6599777,16.9664052 24.2790559,18.2016167 24.2790559,19.7712044 L24.2790559,76.8659018 L7.21215269,76.8659018 Z" id="Shape"></path>
                <polygon id="Path" points="57.2944205 4.69816791 57.2944205 76.8659018 40.1506801 76.8659018 40.1506801 4.69816791"></polygon>
                <path d="M65.4131535,76.8659018 L65.4131535,22.715884 L82.5764799,22.715884 L82.5764799,76.8659018 L65.4131535,76.8659018 Z M73.9466051,16.5162398 C71.5360256,16.5162398 69.4629272,15.7089944 67.7273099,14.0945037 C65.9916926,12.480013 65.123884,10.5264793 65.123884,8.23390253 C65.123884,5.94132574 65.9916926,3.99586446 67.7273099,2.39751868 C69.4629272,0.799172892 71.5360256,0 73.9466051,0 C76.3893257,0 78.4704594,0.799172892 80.1900062,2.39751868 C81.9095529,3.99586446 82.7693263,5.94132574 82.7693263,8.23390253 C82.7693263,10.5264793 81.9095529,12.480013 80.1900062,14.0945037 C78.4704594,15.7089944 76.3893257,16.5162398 73.9466051,16.5162398 Z" id="Shape"></path>
                <path d="M115.823245,77.8731926 C110.140806,77.8731926 105.269803,76.6962542 101.210236,74.3423772 C97.1506697,71.9885002 94.0425287,68.7191566 91.8858133,64.5343462 C89.7290979,60.3495359 88.6507402,55.4963517 88.6507402,49.9747935 C88.6507402,44.4275044 89.7339944,39.559815 91.9005027,35.3717252 C94.0670111,31.1836354 97.1799231,27.9142918 101.239239,25.5636942 C105.298554,23.2130967 110.153361,22.0377979 115.803659,22.0377979 C120.805109,22.0377979 125.152313,22.9467057 128.845271,24.7645214 C132.538229,26.582337 135.42766,29.134872 137.513564,32.4221264 C139.599469,35.7093808 140.700175,39.5777257 140.815682,44.0271612 L124.809433,44.0271612 C124.597503,42.173524 124.112249,40.5847643 123.353669,39.2608819 C122.59509,37.9369995 121.600349,36.9215101 120.369447,36.2144137 C119.138545,35.5073172 117.700233,35.153769 116.05451,35.153769 C114.048707,35.153769 112.303422,35.7091285 110.818656,36.8198477 C109.333889,37.9305668 108.180076,39.578987 107.357214,41.7651083 C106.534353,43.9512296 106.122922,46.6426361 106.122922,49.8393276 C106.122922,53.0229015 106.531088,55.7271734 107.347421,57.9521434 C108.163754,60.1771133 109.316061,61.8675356 110.804343,63.02341 C112.292625,64.1792844 114.04268,64.7572216 116.05451,64.7572216 C118.400807,64.7572216 120.364676,63.9548954 121.946117,62.350243 C123.527558,60.7455907 124.481996,58.5126743 124.809433,55.6514941 L140.815682,55.6514941 C140.674562,60.1140473 139.576995,64.014682 137.522981,67.3533983 C135.468966,70.6921146 132.605147,73.2800928 128.931524,75.1173327 C125.257902,76.9545727 120.888475,77.8731926 115.823245,77.8731926 Z" id="Path"></path>
                <path d="M162.202113,62.6843669 L162.318122,42.1094489 L164.670697,42.1094489 L179.790304,22.715884 L199.267786,22.715884 L176.74318,50.5370903 L172.191705,50.5370903 L162.202113,62.6843669 Z M146.775157,76.8659018 L146.775157,4.69816791 L163.918897,4.69816791 L163.918897,76.8659018 L146.775157,76.8659018 Z M180.214415,76.8659018 L166.13663,54.3921914 L177.418143,42.1480453 L200,76.8659018 L180.214415,76.8659018 Z" id="Shape"></path>
            </g>
            <ellipse id="Oval" fill="#FF0084" cx="74.4317395" cy="9.48180886" rx="9.43812793" ry="9.48180886"></ellipse>
        </g>
    </g>
</svg>